<?xml version="1.0" encoding="utf-8"?>
<!-- Generator: Adobe Illustrator 27.9.0, SVG Export Plug-In . SVG Version: 6.00 Build 0)  -->
<svg version="1.1" id="图层_1" xmlns="http://www.w3.org/2000/svg" xmlns:xlink="http://www.w3.org/1999/xlink" x="0px" y="0px"
	 viewBox="0 0 32 32" style="enable-background:new 0 0 32 32;" xml:space="preserve">
<style type="text/css">
	.st0{fill:#575757;}
</style>
<path class="st0" d="M14.4,3L8.2,3.8c-0.3,0-0.6,0.3-0.6,0.6v7.6c-0.6-0.2-1.2-0.3-1.9-0.2c-2.1,0.2-3.7,1.9-3.8,4
	c-0.2,2.5,1.8,4.5,4.3,4.5c2.4,0,4.3-1.9,4.3-4.3c0-0.1,0-0.2,0-0.3V8c0-0.3,0.2-0.5,0.5-0.6L14.5,7c0.3,0,0.5-0.3,0.5-0.5V3.5
	C15,3.2,14.7,3,14.4,3z"/>
<path class="st0" d="M29.4,5.4l-6.1,0.8c-0.3,0-0.6,0.3-0.6,0.6v10c-0.6-0.2-1.2-0.3-1.9-0.2c-2,0.2-3.7,1.9-3.8,4
	c-0.2,2.5,1.8,4.5,4.3,4.5c2.4,0,4.3-1.9,4.3-4.3c0-0.1,0-0.2,0-0.3V10.4c0-0.3,0.2-0.5,0.5-0.6l3.5-0.4c0.3,0,0.5-0.3,0.5-0.5V5.9
	C30,5.6,29.7,5.3,29.4,5.4z"/>
<path class="st0" d="M13.1,10.7l6.1-0.8c0.3-0.1,0.6,0.2,0.6,0.5v2.9c0,0.3-0.2,0.5-0.5,0.5l-3.5,0.4c-0.3,0-0.5,0.3-0.5,0.6v10.2
	c0,0.1,0,0.2,0,0.3c0,2.4-1.9,4.3-4.3,4.3c-2.5,0-4.4-2.1-4.3-4.5c0.1-2.1,1.7-3.8,3.8-4c0.7-0.1,1.3,0,1.9,0.2v-10
	C12.5,11,12.8,10.7,13.1,10.7z"/>
</svg>
